<svg xmlns="http://www.w3.org/2000/svg" viewBox="0 0 100 100">
  <defs>
    <linearGradient id="calcBody" x1="0%" y1="0%" x2="0%" y2="100%">
      <stop offset="0%" style="stop-color:#6366f1"/>
      <stop offset="100%" style="stop-color:#4f46e5"/>
    </linearGradient>
    <linearGradient id="screen" x1="0%" y1="0%" x2="0%" y2="100%">
      <stop offset="0%" style="stop-color:#a5f3fc"/>
      <stop offset="100%" style="stop-color:#67e8f9"/>
    </linearGradient>
  </defs>
  <!-- Calculator body -->
  <rect x="18" y="8" width="64" height="84" rx="8" fill="url(#calcBody)"/>
  <!-- Screen -->
  <rect x="26" y="16" width="48" height="22" rx="4" fill="url(#screen)"/>
  <text x="68" y="33" font-size="16" font-weight="bold" fill="#1e40af" text-anchor="end" font-family="monospace">₪</text>
  <!-- Buttons row 1 -->
  <rect x="26" y="46" width="12" height="10" rx="2" fill="#818cf8"/>
  <rect x="44" y="46" width="12" height="10" rx="2" fill="#818cf8"/>
  <rect x="62" y="46" width="12" height="10" rx="2" fill="#f59e0b"/>
  <!-- Buttons row 2 -->
  <rect x="26" y="62" width="12" height="10" rx="2" fill="#818cf8"/>
  <rect x="44" y="62" width="12" height="10" rx="2" fill="#818cf8"/>
  <rect x="62" y="62" width="12" height="10" rx="2" fill="#f59e0b"/>
  <!-- Buttons row 3 -->
  <rect x="26" y="78" width="30" height="10" rx="2" fill="#818cf8"/>
  <rect x="62" y="78" width="12" height="10" rx="2" fill="#22c55e"/>
</svg>
